<?xml version="1.0" encoding="UTF-8"?>
<svg xmlns="http://www.w3.org/2000/svg" xmlns:xlink="http://www.w3.org/1999/xlink" contentScriptType="text/ecmascript" zoomAndPan="magnify" baseProfile="tiny" contentStyleType="text/css" version="1.1" width="42px" preserveAspectRatio="xMidYMid meet" viewBox="0 0 42 29" height="29px" x="0px" y="0px">
    <g>
        <g>
            <rect width="42" fill="none" height="29"/>
        </g>
        <g>
            <rect x="4.539" width="32.5" fill="none" y="-3.169" height="32.5"/>
            <g>
                <g>
                    <g>
                        <path d="M 20.631 24.054 L 20.623001 16.666 C 20.624 16.644001 20.624 16.616001 20.624 16.582 C 20.622 16.339 20.6 15.768001 20.232 15.178 C 19.872 14.578 19.077 14.065001 17.968 14.083 L 10.691 14.083 C 10.672 14.082 10.651 14.082 10.632 14.082 C 9.558 14.082 8.783 14.585 8.43 15.175 C 8.064 15.765 8.041 16.335001 8.037001 16.581 C 8.037001 16.623 8.038001 16.651999 8.038001 16.67 L 8.046001 24.095001 C 8.046001 24.069002 8.045001 24.11 8.045001 24.170002 C 8.049001 24.418001 8.072001 24.988003 8.441001 25.576002 C 8.800001 26.174002 9.595001 26.683002 10.701001 26.667002 L 17.977001 26.667002 C 19.081001 26.684002 19.877 26.174002 20.236002 25.575 C 20.607002 24.985 20.630001 24.415 20.634003 24.17 C 20.635 24.124 20.633 24.081 20.631 24.054 z " fill-opacity="0.2"/>
                        <path d="M 8.736 24.094 C 8.736 24.094 8.59 25.977 10.7 25.977 L 17.977 25.977 C 20.085999 25.977 19.942999 24.094 19.942999 24.094 " fill-opacity="0.4"/>
                        <linearGradient x1="126.334" gradientTransform="matrix(1 0 0 1 -112 -748)" y1="761.9883" x2="126.334" gradientUnits="userSpaceOnUse" y2="773.1963" xlink:type="simple" xlink:actuate="onLoad" id="SVGID_1_" xlink:show="other">
                            <stop stop-color="#ff0000" offset="0"/>
                            <stop stop-color="#8300ba" offset="1"/>
                        </linearGradient>
                        <path fill="url(#SVGID_1_)" d="M 8.725 15.873 L 8.736 23.311 C 8.736 23.311 8.59 25.197 10.7 25.197 L 17.977 25.197 C 20.085999 25.197 19.942999 23.311 19.942999 23.311 L 19.933998 15.873001 C 19.933998 15.873001 20.074999 13.989001 17.967999 13.989001 L 10.6919985 13.989001 C 8.582 13.989 8.725 15.873 8.725 15.873 z "/>
                        <path fill="#ffffff" d="M 19.605 19.713 L 19.595999 16.112999 C 19.595999 16.112999 19.730999 14.373999 17.758999 14.373999 L 10.962999 14.373999 C 8.990999 14.373999 9.126999 16.112999 9.126999 16.112999 L 9.134999 19.713 L 19.605 19.713 z " fill-opacity="0.3"/>
                    </g>
                    <g>
                        <path d="M 8.736 11.78 C 8.736 11.78 8.59 13.663 10.7 13.663 L 17.977 13.663 C 20.085999 13.663 19.942999 11.78 19.942999 11.78 " fill-opacity="0.4"/>
                        <path d="M 20.631 11.743 L 20.623001 4.353 C 20.624 4.3310003 20.624 4.3040004 20.624 4.27 C 20.622 4.026 20.6 3.4559999 20.232 2.866 C 19.872 2.2659998 19.077 1.7529999 17.968 1.7709999 L 10.691 1.7709999 C 10.672 1.7699999 10.651 1.7699999 10.632 1.7659999 C 9.558 1.7659999 8.783 2.2659998 8.43 2.859 C 8.063001 3.45 8.041 4.019 8.036 4.263 C 8.036 4.305 8.037001 4.336 8.037001 4.352 L 8.0460005 11.780001 C 8.0460005 11.754001 8.045 11.797001 8.045 11.857 C 8.049 12.107 8.0720005 12.672 8.441 13.264 C 8.8 13.86 9.595 14.368 10.701 14.351 L 17.977001 14.351 C 19.081001 14.37 19.877 13.8619995 20.236002 13.264 C 20.607002 12.67 20.630001 12.105 20.634003 11.858 C 20.635 11.81 20.633 11.769 20.631 11.743 z " fill-opacity="0.2"/>
                        <linearGradient x1="126.334" gradientTransform="matrix(1 0 0 1 -112 -748)" y1="760.8828" x2="126.334" gradientUnits="userSpaceOnUse" y2="749.6758" xlink:type="simple" xlink:actuate="onLoad" id="SVGID_2_" xlink:show="other">
                            <stop stop-color="#e50d16" offset="0"/>
                            <stop stop-color="#ffe800" offset="0.9011"/>
                            <stop stop-color="#ffe800" offset="1"/>
                        </linearGradient>
                        <path fill="url(#SVGID_2_)" d="M 8.725 3.56 L 8.736 10.998 C 8.736 10.998 8.59 12.883 10.7 12.883 L 17.977 12.883 C 20.085999 12.883 19.942999 10.998 19.942999 10.998 L 19.934 3.56 C 19.934 3.56 20.075 1.675 17.968 1.675 L 10.692 1.675 C 8.582 1.676 8.725 3.56 8.725 3.56 z "/>
                        <path fill="#ffffff" d="M 19.605 7.396 L 19.595999 3.7949998 C 19.595999 3.7949998 19.730999 2.0549998 17.758999 2.0549998 L 10.962999 2.0549998 C 8.990999 2.0549998 9.126999 3.7949998 9.126999 3.7949998 L 9.134999 7.396 L 19.605 7.396 z " fill-opacity="0.3"/>
                    </g>
                    <g>
                        <path d="M 33.036 11.743 L 33.028 4.353 C 33.03 4.331 33.03 4.304 33.03 4.27 C 33.028 4.026 33.003998 3.4559999 32.638 2.866 C 32.277 2.2659998 31.482 1.7529999 30.374 1.7709999 L 23.098 1.7709999 C 23.077 1.7699999 23.057999 1.7699999 23.036999 1.7659999 C 21.961998 1.7659999 21.189 2.2659998 20.834 2.859 C 20.468 3.45 20.446 4.019 20.441 4.263 C 20.441 4.305 20.442 4.336 20.443 4.352 L 20.451 11.780001 C 20.451 11.754001 20.449 11.797001 20.449 11.857 C 20.453 12.107 20.476 12.672 20.845 13.264 C 21.205 13.86 22.001 14.368 23.106998 14.351 L 30.380999 14.351 C 31.485998 14.37 32.281 13.8619995 32.642998 13.264 C 33.013996 12.67 33.037 12.105 33.039997 11.858 C 33.042 11.81 33.038 11.769 33.036 11.743 z M 21.131 4.342 L 21.131 4.342 L 21.131 4.342 L 21.131 4.342 z " fill-opacity="0.2"/>
                        <linearGradient x1="264.6172" gradientTransform="matrix(-1 0 0 -1 291.3574 2228.4863)" y1="2226.8232" x2="264.6172" gradientUnits="userSpaceOnUse" y2="2210.3667" xlink:type="simple" xlink:actuate="onLoad" id="SVGID_3_" xlink:show="other">
                            <stop stop-color="#baff12" offset="0"/>
                            <stop stop-color="#53c280" offset="0.3626"/>
                            <stop stop-color="#0d99cb" offset="0.533"/>
                            <stop stop-color="#0091d9" offset="1"/>
                        </linearGradient>
                        <path fill="url(#SVGID_3_)" d="M 21.131 3.56 L 21.141 10.998 C 21.141 10.998 20.995 12.883 23.106 12.883 L 30.382 12.883 C 32.492 12.883 32.349 10.998 32.349 10.998 L 32.34 3.56 C 32.34 3.56 32.482 1.675 30.375 1.675 L 23.098999 1.675 C 20.988 1.676 21.131 3.56 21.131 3.56 z "/>
                        <path fill="#ffffff" d="M 31.982 7.396 L 31.972 3.7949998 C 31.972 3.7949998 32.108 2.0549998 30.136 2.0549998 L 23.34 2.0549998 C 21.369 2.0549998 21.504 3.7949998 21.504 3.7949998 L 21.513 7.396 L 31.982 7.396 z " fill-opacity="0.3"/>
                    </g>
                </g>
            </g>
            <path d="M 37.131 7.97 C 37.138 5.347 33.809002 3.8839998 31.937 5.7559996 C 30.995 6.6979995 30.052 7.6399994 29.11 8.582999 L 29.11 8.577 L 28.063 9.63 C 26.678999 9.035 24.559 11.324 25.542 12.614 L 16.153 22.0 L 15.789 21.877 C 15.584999 23.093 15.511999 24.371 14.611 25.272001 C 13.724 26.158 11.503 27.884 13.333 29.092001 C 14.712 30.003 15.996 28.122002 16.84 27.278002 C 17.633 26.485003 18.888 26.424002 19.957 26.216002 C 19.736 25.736002 20.882 24.962002 21.162 24.682001 C 22.254002 23.59 23.347 22.497002 24.438 21.406002 C 26.087 19.757002 27.737 18.107002 29.386 16.458002 C 30.673 17.436003 32.974 15.323002 32.369 13.936002 C 33.204 13.101002 34.04 12.265001 34.875 11.429002 C 35.855 10.449 37.135 9.492 37.131 7.97 M 31.395 13.129 C 32.153 13.789 31.428001 14.361 30.933 14.856999 C 30.331001 15.457 29.906 15.214 29.377 14.684999 C 27.686 16.376 25.994001 18.067 24.303001 19.758999 C 23.154001 20.907999 22.004002 22.057999 20.855001 23.206999 C 20.366001 23.695 19.771002 24.577 19.112001 24.866999 L 19.116001 24.887999 C 18.303001 25.037998 17.393002 25.171999 16.697 25.635998 C 16.697 25.635998 16.697 25.635998 16.698 25.634998 C 16.165 26.168 14.483 28.506998 13.621 27.641998 C 12.827001 26.844997 14.549 25.640999 15.030001 25.161 C 15.899001 24.293 16.178001 23.348 16.374 22.116 L 16.404001 22.126999 C 16.714 21.477 17.562 20.9 18.055 20.407 C 19.204 19.258 20.354 18.108 21.503 16.959 C 23.194 15.268999 24.886 13.577 26.577 11.886 C 26.048 11.358 25.806 10.929999 26.404999 10.3289995 C 26.897999 9.834999 27.474998 9.106999 28.131998 9.867999 C 28.210999 9.787999 28.290998 9.708999 28.369999 9.629999 C 29.415998 8.584 30.460999 7.537999 31.507 6.491999 C 32.704 5.293999 34.223 4.012999 35.755 5.696999 C 37.4 7.340999 35.601 8.921999 34.456 10.066999 C 33.436 11.086 32.415 12.107 31.395 13.129 " fill-opacity="0.3" stroke-opacity="0.3"/>
            <path d="M 35.757 8.766 L 31.395 13.129 C 31.525 13.238999 31.656 13.394 31.708 13.554 C 32.546 12.716 33.384 11.878 34.223 11.039 C 35.149 10.113 36.613 9.087 36.357998 7.601 C 36.284 8.027 36.086 8.436 35.757 8.766 " fill-opacity="0.3" stroke-opacity="0.3"/>
            <path d="M 31.551 14.238 L 30.716002 15.071 C 30.453001 15.336 30.028002 15.336 29.764002 15.071 L 29.377003 14.684 L 19.369 24.691 C 19.293 24.767 19.205 24.825 19.112 24.866 L 19.116 24.887 L 18.953999 24.917 C 18.953999 24.917 18.950998 24.918 18.947998 24.919 C 18.934998 24.922 18.922998 24.924 18.914997 24.925001 C 18.715998 24.961 17.736998 25.155 17.126997 25.397001 C 16.924997 25.477001 16.763996 25.567001 16.705997 25.626001 C 16.701998 25.630001 16.697998 25.634 16.696997 25.635002 C 16.696997 25.635002 16.696997 25.635002 16.697996 25.634003 L 14.692996 27.641003 C 14.396996 27.938004 13.916996 27.938004 13.620996 27.641003 C 13.571997 27.590002 13.542996 27.532003 13.510997 27.473003 C 13.345997 27.762003 13.374997 28.131004 13.620996 28.378004 C 13.916996 28.675005 14.3969965 28.675005 14.692997 28.378004 L 16.697998 26.373005 C 16.696999 26.374004 16.696999 26.374004 16.696999 26.374004 C 16.697998 26.373005 16.701998 26.369005 16.706 26.365004 C 16.764 26.302004 16.925 26.214005 17.126999 26.135004 C 17.735998 25.895004 18.714998 25.700005 18.914999 25.663004 C 18.922998 25.662004 18.935 25.660004 18.948 25.658005 C 18.951 25.657005 18.954 25.656004 18.954 25.656004 L 19.116001 25.625004 L 19.112001 25.604004 C 19.205002 25.563004 19.293001 25.504004 19.369001 25.430004 L 29.377003 15.421004 L 29.764002 15.809004 C 30.028002 16.073004 30.453001 16.073004 30.716002 15.809004 L 31.551 14.976004 C 31.782001 14.744003 31.798 14.392004 31.622 14.129004 C 31.598 14.166 31.582 14.206 31.551 14.238 z " fill-opacity="0.3" stroke-opacity="0.3"/>
            <path fill="#e8e8e8" d="M 13.621 26.566 L 15.635 24.554 C 15.695001 24.495 15.785 24.337002 15.862 24.138 L 15.862 24.138 C 15.942 23.937 16.017 23.697 16.082 23.454 L 16.082 23.454 C 16.213001 22.974 16.307001 22.497 16.334002 22.35 L 16.334002 22.35 C 16.336002 22.336 16.339 22.321001 16.342001 22.305 L 16.342001 22.305 L 16.374 22.113 L 16.404001 22.124 C 16.444002 22.04 16.498001 21.960001 16.569002 21.890001 L 16.569002 21.890001 L 26.934002 11.525002 C 27.262001 11.196001 27.795002 11.196001 28.124002 11.525002 L 28.124002 11.525002 L 29.732002 13.134002 C 30.062002 13.463001 30.062002 13.995002 29.732002 14.325002 L 29.732002 14.325002 L 19.369 24.691 C 19.293 24.767 19.205 24.825 19.112 24.866 L 19.112 24.866 L 19.116 24.887 L 18.953999 24.917 C 18.953999 24.917 18.950998 24.918 18.947998 24.919 L 18.947998 24.919 C 18.934998 24.922 18.922998 24.924 18.914997 24.925001 L 18.914997 24.925001 C 18.715998 24.961 17.736998 25.155 17.126997 25.397001 L 17.126997 25.397001 C 16.924997 25.477001 16.763996 25.567001 16.705997 25.626001 L 16.705997 25.626001 C 16.701998 25.630001 16.697998 25.634 16.696997 25.635002 L 16.696997 25.635002 C 16.696997 25.635002 16.696997 25.635002 16.697996 25.634003 L 16.697996 25.634003 L 14.692996 27.641003 C 14.396996 27.938004 13.916996 27.938004 13.620996 27.641003 L 13.620996 27.641003 C 13.325 27.345 13.325 26.864 13.621 26.566 L 13.621 26.566 z M 16.666 22.411 L 16.666 22.413 L 16.666 22.415 C 16.623001 22.643002 16.434 23.611 16.175001 24.264 L 16.175001 24.264 C 16.087002 24.483 15.998001 24.664999 15.873001 24.793 L 15.873001 24.793 L 13.860001 26.807 C 13.696001 26.973 13.696001 27.238998 13.860001 27.403 L 13.860001 27.403 C 14.025001 27.567 14.291 27.567 14.456 27.403 L 14.456 27.403 L 16.463001 25.395 C 16.467001 25.393 16.470001 25.389 16.471 25.387001 L 16.471 25.387001 L 16.471 25.387001 C 16.599 25.264002 16.784 25.172 17.005001 25.083 L 17.005001 25.083 C 17.226002 24.997 17.480001 24.918 17.731 24.852 L 17.731 24.852 C 18.232 24.716 18.716002 24.623 18.858002 24.594 L 18.858002 24.594 C 18.865002 24.593 18.87 24.592 18.875002 24.592 L 18.875002 24.592 L 18.888002 24.588999 C 18.978003 24.567999 19.063002 24.523998 19.133003 24.453 L 19.133003 24.453 L 29.499004 14.087999 C 29.695004 13.889999 29.695004 13.570999 29.499004 13.374 L 29.499004 13.374 L 27.891005 11.766 C 27.694004 11.569 27.374004 11.569 27.176004 11.766 L 27.176004 11.766 L 16.808 22.13 C 16.738 22.199 16.694 22.283998 16.673 22.376 L 16.673 22.376 L 16.672 22.383999 C 16.669 22.393 16.667 22.4 16.666 22.411 L 16.666 22.411 z " fill-opacity="0.8" stroke-opacity="0.8"/>
            <path fill="none" d="M 13.621 26.566 L 15.635 24.554 C 15.695001 24.495 15.785 24.337002 15.862 24.138 L 15.862 24.138 C 15.942 23.937 16.017 23.697 16.082 23.454 L 16.082 23.454 C 16.213001 22.974 16.307001 22.497 16.334002 22.35 L 16.334002 22.35 C 16.336002 22.336 16.339 22.321001 16.342001 22.305 L 16.342001 22.305 L 16.374 22.113 L 16.404001 22.124 C 16.444002 22.04 16.498001 21.960001 16.569002 21.890001 L 16.569002 21.890001 L 26.934002 11.525002 C 27.262001 11.196001 27.795002 11.196001 28.124002 11.525002 L 28.124002 11.525002 L 29.732002 13.134002 C 30.062002 13.463001 30.062002 13.995002 29.732002 14.325002 L 29.732002 14.325002 L 19.369 24.691 C 19.293 24.767 19.205 24.825 19.112 24.866 L 19.112 24.866 L 19.116 24.887 L 18.953999 24.917 C 18.953999 24.917 18.950998 24.918 18.947998 24.919 L 18.947998 24.919 C 18.934998 24.922 18.922998 24.924 18.914997 24.925001 L 18.914997 24.925001 C 18.715998 24.961 17.736998 25.155 17.126997 25.397001 L 17.126997 25.397001 C 16.924997 25.477001 16.763996 25.567001 16.705997 25.626001 L 16.705997 25.626001 C 16.701998 25.630001 16.697998 25.634 16.696997 25.635002 L 16.696997 25.635002 C 16.696997 25.635002 16.696997 25.635002 16.697996 25.634003 L 16.697996 25.634003 L 14.692996 27.641003 C 14.396996 27.938004 13.916996 27.938004 13.620996 27.641003 L 13.620996 27.641003 C 13.325 27.345 13.325 26.864 13.621 26.566 L 13.621 26.566 z M 16.666 22.411 L 16.666 22.413 L 16.666 22.415 C 16.623001 22.643002 16.434 23.611 16.175001 24.264 L 16.175001 24.264 C 16.087002 24.483 15.998001 24.664999 15.873001 24.793 L 15.873001 24.793 L 13.860001 26.807 C 13.696001 26.973 13.696001 27.238998 13.860001 27.403 L 13.860001 27.403 C 14.025001 27.567 14.291 27.567 14.456 27.403 L 14.456 27.403 L 16.463001 25.395 C 16.467001 25.393 16.470001 25.389 16.471 25.387001 L 16.471 25.387001 L 16.471 25.387001 C 16.599 25.264002 16.784 25.172 17.005001 25.083 L 17.005001 25.083 C 17.226002 24.997 17.480001 24.918 17.731 24.852 L 17.731 24.852 C 18.232 24.716 18.716002 24.623 18.858002 24.594 L 18.858002 24.594 C 18.865002 24.593 18.87 24.592 18.875002 24.592 L 18.875002 24.592 L 18.888002 24.588999 C 18.978003 24.567999 19.063002 24.523998 19.133003 24.453 L 19.133003 24.453 L 29.499004 14.087999 C 29.695004 13.889999 29.695004 13.570999 29.499004 13.374 L 29.499004 13.374 L 27.891005 11.766 C 27.694004 11.569 27.374004 11.569 27.176004 11.766 L 27.176004 11.766 L 16.808 22.13 C 16.738 22.199 16.694 22.283998 16.673 22.376 L 16.673 22.376 L 16.672 22.383999 C 16.669 22.393 16.667 22.4 16.666 22.411 L 16.666 22.411 z " fill-opacity="0.8" stroke-opacity="0.8" stroke="#e8e8e8"/>
            <linearGradient x1="231.8936" gradientTransform="matrix(0.7071 0.7071 0.7071 -0.7071 -369.6597 80.4146)" y1="319.165" x2="235.5166" gradientUnits="userSpaceOnUse" y2="319.165" xlink:type="simple" xlink:actuate="onLoad" id="SVGID_4_" xlink:show="other">
                <stop stop-color="#d6d6d6" offset="0"/>
                <stop stop-color="#878787" offset="0.7967"/>
                <stop stop-color="#d6d6d6" offset="1"/>
            </linearGradient>
            <path fill="url(#SVGID_4_)" d="M 29.615 14.207 C 29.879 13.943 29.879 13.518 29.615 13.255 L 28.006 11.646 C 27.743 11.382999 27.317001 11.382999 27.053001 11.646 L 16.688 22.012 C 16.595 22.103998 16.535 22.219 16.508 22.338999 L 16.508 22.338999 C 16.508 22.338999 16.508 22.339998 16.508 22.341 C 16.504 22.355999 16.501 22.369999 16.498999 22.385 C 16.442999 22.68 16.123 24.305 15.751999 24.675 L 13.738998 26.688 C 13.508999 26.918 13.508999 27.292 13.738998 27.522 C 13.968998 27.751 14.3429985 27.751 14.572998 27.522 L 16.578 25.518 C 16.581 25.514 16.584 25.511 16.585999 25.507 C 16.96 25.136 18.609999 24.813 18.883 24.76 C 18.894 24.759 18.904 24.757 18.914 24.755001 C 18.918999 24.754002 18.921999 24.754002 18.921999 24.754002 L 18.921999 24.753002 C 19.042 24.727003 19.154999 24.667002 19.248999 24.572002 L 29.615 14.207 z " fill-opacity="0.5" stroke-opacity="0.5"/>
            <linearGradient x1="232.1758" gradientTransform="matrix(0.7071 0.7071 0.7071 -0.7071 -369.6597 80.4146)" y1="319.166" x2="235.2373" gradientUnits="userSpaceOnUse" y2="319.166" xlink:type="simple" xlink:actuate="onLoad" id="SVGID_5_" xlink:show="other">
                <stop stop-color="#d6d6d6" offset="0"/>
                <stop stop-color="#878787" offset="0.7967"/>
                <stop stop-color="#d6d6d6" offset="1"/>
            </linearGradient>
            <path fill="url(#SVGID_5_)" d="M 18.832 24.482 L 18.832 24.482 L 18.838001 24.482 C 18.842001 24.482 18.848001 24.482 18.851002 24.48 L 18.862001 24.477999 C 18.933 24.46 18.997002 24.425999 19.053001 24.373999 L 29.417002 14.008999 C 29.568 13.855999 29.568 13.606998 29.417002 13.453999 L 27.809002 11.845999 C 27.657001 11.6919985 27.409002 11.6919985 27.252003 11.845999 L 16.887 22.21 C 16.832998 22.264 16.799 22.328 16.782999 22.4 L 16.782 22.406 C 16.779999 22.411 16.779 22.42 16.778 22.427 L 16.777 22.432 L 16.777 22.438 C 16.733 22.666 16.545 23.636 16.28 24.305 C 16.188002 24.531 16.098001 24.721 15.953001 24.871 L 13.939001 26.885 C 13.819001 27.006 13.819001 27.2 13.939001 27.323 C 14.059001 27.442 14.255001 27.442 14.376001 27.323 L 16.382002 25.317 L 16.384003 25.314999 C 16.390003 25.308998 16.394003 25.304998 16.395002 25.304998 C 16.546001 25.158998 16.737003 25.071 16.963003 24.980999 C 17.190002 24.890999 17.447002 24.810999 17.701004 24.741999 C 18.206 24.604 18.691 24.511 18.832 24.482 z " fill-opacity="0.5" stroke-opacity="0.5"/>
            <linearGradient x1="228.9102" gradientTransform="matrix(0.7071 0.7071 0.7071 -0.7071 -369.6597 80.4146)" y1="315.1982" x2="237.7947" gradientUnits="userSpaceOnUse" y2="315.1982" xlink:type="simple" xlink:actuate="onLoad" id="SVGID_6_" xlink:show="other">
                <stop stop-color="#ff0000" offset="0"/>
                <stop stop-color="#8300ba" offset="1"/>
            </linearGradient>
            <path fill="url(#SVGID_6_)" d="M 16.688 22.012 C 16.595 22.103998 16.535 22.219 16.508 22.338999 L 16.508 22.338999 C 16.508 22.338999 16.508 22.339998 16.508 22.341 C 16.504 22.355999 16.501 22.369999 16.498999 22.385 C 16.442999 22.68 16.123 24.305 15.751999 24.675 L 13.738998 26.688 C 13.508999 26.918 13.508999 27.292 13.738998 27.522 C 13.968998 27.751 14.3429985 27.751 14.572998 27.522 L 16.578 25.518 C 16.581 25.514 16.584 25.511 16.585999 25.507 C 16.96 25.136 18.609999 24.813 18.883 24.76 C 18.894 24.759 18.904 24.757 18.914 24.755001 C 18.918999 24.754002 18.921999 24.754002 18.921999 24.754002 L 18.921999 24.753002 C 19.042 24.727003 19.154999 24.667002 19.248999 24.572002 L 24.48 19.340002 C 23.269 19.087002 21.921 18.504002 20.784 17.913002 L 16.688 22.012 z " fill-opacity="0.6" stroke-opacity="0.6"/>
            <linearGradient x1="231.3984" gradientTransform="matrix(0.7071 0.7071 0.7071 -0.7071 -369.6597 80.4146)" y1="334.0771" x2="236.0117" gradientUnits="userSpaceOnUse" y2="334.0771" xlink:type="simple" xlink:actuate="onLoad" id="SVGID_7_" xlink:show="other">
                <stop stop-color="#707070" offset="0"/>
                <stop stop-color="#707070" offset="0.1374"/>
                <stop stop-color="#303030" offset="0.6978"/>
                <stop stop-color="#2d2d2d" offset="0.9396"/>
                <stop stop-color="#707070" offset="1"/>
            </linearGradient>
            <path fill="url(#SVGID_7_)" d="M 31.143 13.38 C 30.296 14.228 28.921 14.228 28.074 13.38 L 27.883 13.188 C 27.035 12.339 27.035 10.965 27.883999 10.118 L 32.496 5.504 C 33.344997 4.656 34.719997 4.656 35.566998 5.504 L 35.756996 5.696 C 36.605995 6.544 36.605995 7.918 35.756996 8.766 L 31.143 13.38 z "/>
            <path fill="#161616" d="M 31.143 13.38 L 31.633 12.889 L 28.370998 9.628 L 27.881998 10.118 C 27.334997 10.664 27.140999 11.427 27.298998 12.129 L 29.130999 13.962 C 29.833 14.119 30.598 13.926 31.143 13.38 z "/>
            <linearGradient x1="230.5029" gradientTransform="matrix(0.7071 0.7071 0.7071 -0.7071 -369.6597 80.4146)" y1="329.9063" x2="236.9072" gradientUnits="userSpaceOnUse" y2="329.9063" xlink:type="simple" xlink:actuate="onLoad" id="SVGID_8_" xlink:show="other">
                <stop stop-color="#707070" offset="0"/>
                <stop stop-color="#707070" offset="0.1374"/>
                <stop stop-color="#303030" offset="0.6978"/>
                <stop stop-color="#2d2d2d" offset="0.9396"/>
                <stop stop-color="#707070" offset="1"/>
            </linearGradient>
            <path fill="url(#SVGID_8_)" d="M 30.716 15.07 C 30.453 15.335 30.028 15.335 29.764 15.07 L 26.19 11.497 C 25.928001 11.233 25.928001 10.806 26.19 10.542999 L 27.024 9.709999 C 27.289 9.445999 27.714 9.445999 27.977 9.709999 L 31.550999 13.2839985 C 31.814999 13.546999 31.814999 13.972999 31.550999 14.237999 L 30.716 15.07 z "/>
            <path fill="#e8e8e8" d="M 35.268 5.801 C 34.582 5.119 33.477 5.119 32.792 5.801 L 28.133 10.461 L 27.68 10.008 C 27.58 9.909 27.421 9.909 27.321001 10.008 L 26.489 10.841001 C 26.391 10.940001 26.391 11.1 26.489 11.198001 L 27.175001 11.884001 L 16.867 22.189 C 16.832 22.223999 16.805 22.262999 16.785 22.303999 L 16.762 22.355 L 16.755999 22.386 L 16.753998 22.397999 C 16.752998 22.401999 16.751997 22.411 16.749998 22.418999 L 16.749998 22.423998 L 16.748999 22.430998 C 16.72 22.581997 16.624998 23.065998 16.488998 23.567997 C 16.420998 23.817997 16.342999 24.069998 16.255 24.292997 C 16.210999 24.403997 16.163 24.507998 16.112999 24.597998 C 16.061998 24.689997 16.019 24.765997 15.935999 24.849998 C 15.933999 24.852 15.932999 24.853998 15.932999 24.853998 L 13.918999 26.867998 C 13.787999 26.998999 13.787999 27.212997 13.918999 27.344997 L 35.363 5.897 L 35.268 5.801 z " fill-opacity="0.3" stroke-opacity="0.3"/>
        </g>
    </g>
</svg>
